<svg width="16" height="24" viewBox="0 0 16 24" fill="none" xmlns="http://www.w3.org/2000/svg">
<path d="M8 0C8.6875 0 9.35156 0.0898438 9.99219 0.269531C10.6328 0.449219 11.2305 0.699219 11.7852 1.01953C12.3398 1.33984 12.8438 1.73047 13.2969 2.19141C13.75 2.65234 14.1406 3.16016 14.4688 3.71484C14.7969 4.26953 15.0508 4.86719 15.2305 5.50781C15.4102 6.14844 15.5 6.8125 15.5 7.5C15.5 8.03906 15.4375 8.55078 15.3125 9.03516C15.1875 9.51953 15 10.0078 14.75 10.5L8 24L1.25 10.5C1.00781 10.0156 0.824219 9.53125 0.699219 9.04688C0.574219 8.5625 0.507812 8.04688 0.5 7.5C0.5 6.8125 0.589844 6.14844 0.769531 5.50781C0.949219 4.86719 1.19922 4.26953 1.51953 3.71484C1.83984 3.16016 2.23047 2.65625 2.69141 2.20312C3.15234 1.75 3.66016 1.35938 4.21484 1.03125C4.76953 0.703125 5.36719 0.449219 6.00781 0.269531C6.64844 0.0898438 7.3125 0 8 0ZM13.5781 9.91406V9.90234L13.5898 9.89062C13.7852 9.52344 13.9336 9.13672 14.0352 8.73047C14.1367 8.32422 14.1875 7.91406 14.1875 7.5C14.1875 6.64844 14.0273 5.84766 13.707 5.09766C13.3867 4.34766 12.9414 3.69141 12.3711 3.12891C11.8008 2.56641 11.1445 2.125 10.4023 1.80469C9.66016 1.48438 8.85938 1.32031 8 1.3125C7.14844 1.3125 6.34766 1.47266 5.59766 1.79297C4.84766 2.11328 4.19141 2.55859 3.62891 3.12891C3.06641 3.69922 2.625 4.35547 2.30469 5.09766C1.98438 5.83984 1.82031 6.64062 1.8125 7.5C1.8125 7.91406 1.86328 8.32422 1.96484 8.73047C2.06641 9.13672 2.21484 9.52344 2.41016 9.89062V9.90234L2.42188 9.91406L8 21.0703L13.5781 9.91406ZM8 3.09375C8.60938 3.09375 9.17969 3.20703 9.71094 3.43359C10.2422 3.66016 10.7109 3.97656 11.1172 4.38281C11.5234 4.78906 11.8359 5.25391 12.0547 5.77734C12.2734 6.30078 12.3906 6.875 12.4062 7.5C12.4062 8.10938 12.293 8.67969 12.0664 9.21094C11.8398 9.74219 11.5234 10.2109 11.1172 10.6172C10.7109 11.0234 10.2461 11.3359 9.72266 11.5547C9.19922 11.7734 8.625 11.8906 8 11.9062C7.39062 11.9062 6.82031 11.793 6.28906 11.5664C5.75781 11.3398 5.28906 11.0234 4.88281 10.6172C4.47656 10.2109 4.16406 9.74609 3.94531 9.22266C3.72656 8.69922 3.60938 8.125 3.59375 7.5C3.59375 6.89062 3.70703 6.32031 3.93359 5.78906C4.16016 5.25781 4.47656 4.78906 4.88281 4.38281C5.28906 3.97656 5.75391 3.66406 6.27734 3.44531C6.80078 3.22656 7.375 3.10938 8 3.09375ZM8 10.5938C8.42969 10.5938 8.83203 10.5156 9.20703 10.3594C9.58203 10.2031 9.91016 9.98047 10.1914 9.69141C10.4727 9.40234 10.6914 9.07422 10.8477 8.70703C11.0039 8.33984 11.0859 7.9375 11.0938 7.5C11.0938 7.07031 11.0156 6.66797 10.8594 6.29297C10.7031 5.91797 10.4805 5.58984 10.1914 5.30859C9.90234 5.02734 9.57422 4.80859 9.20703 4.65234C8.83984 4.49609 8.4375 4.41406 8 4.40625C7.57031 4.40625 7.16797 4.48438 6.79297 4.64062C6.41797 4.79688 6.08984 5.01953 5.80859 5.30859C5.52734 5.59766 5.30859 5.92578 5.15234 6.29297C4.99609 6.66016 4.91406 7.0625 4.90625 7.5C4.90625 7.92969 4.98438 8.33203 5.14062 8.70703C5.29688 9.08203 5.51953 9.41016 5.80859 9.69141C6.09766 9.97266 6.42578 10.1914 6.79297 10.3477C7.16016 10.5039 7.5625 10.5859 8 10.5938Z" fill="white" fill-opacity="0.7"/>
</svg>
